# xmcd
#
# Track frame offsets: 
#        150
#        3685
#        14056
#        32801
#        47747
#        66758
#        84118
#        103952
#        120072
#        125369
#        143196
#        156685
#        172317
#        189847
#        209401
#        230411
#
# Disc length: 3394 seconds
#
# Revision: 0
# Processed by: cddbd v1.5.2PL0 Copyright (c) Steve Scherf et al.
# Submitted via: ExactAudioCopyFreeDBPlugin 1.0
#
DISCID=df0d4010
DTITLE=Jeru The Damaja - Still Rising
DYEAR=2007
DGENRE=Hip-Hop
TTITLE0=Intro
TTITLE1=The Crack
TTITLE2=The Prophet
TTITLE3=Ghetto
TTITLE4=Murdera
TTITLE5=Quantum Leap
TTITLE6=History 101
TTITLE7=How Ill
TTITLE8=Will Grow (Interlude)
TTITLE9=Dirty Bomb
TTITLE10=Ny
TTITLE11=Juss Buggn'
TTITLE12=Airplay
TTITLE13=Kick Rocks
TTITLE14=Hold Tight
TTITLE15=Streets
EXTD=
EXTT0=
EXTT1=
EXTT2=
EXTT3=
EXTT4=
EXTT5=
EXTT6=
EXTT7=
EXTT8=
EXTT9=
EXTT10=
EXTT11=
EXTT12=
EXTT13=
EXTT14=
EXTT15=
PLAYORDER=
